Coordinates
version=1
nRows=5
nColumns=40
inDegrees=yes

Units are S.I. units (second, meters, Newtons, ...)
If the header above contains a line with 'inDegrees', this indicates whether rotational values are in degrees (yes) or radians (no).

endheader
time	pelvis_tilt	pelvis_list	pelvis_rotation	pelvis_tx	pelvis_ty	pelvis_tz	hip_flexion_r	hip_adduction_r	hip_rotation_r	knee_angle_r	knee_angle_r_beta	ankle_angle_r	subtalar_angle_r	mtp_angle_r	hip_flexion_l	hip_adduction_l	hip_rotation_l	knee_angle_l	knee_angle_l_beta	ankle_angle_l	subtalar_angle_l	mtp_angle_l	lumbar_extension	lumbar_bending	lumbar_rotation	arm_flex_r	arm_add_r	arm_rot_r	elbow_flex_r	pro_sup_r	wrist_flex_r	wrist_dev_r	arm_flex_l	arm_add_l	arm_rot_l	elbow_flex_l	pro_sup_l	wrist_flex_l	wrist_dev_l
     18.85000000000000142109	     38.45855778925982804139	    -10.27714952697404093840	    177.62550056834109568626	      0.34848129966983115713	      0.82393079669504032392	     -0.57852111482219770178	     81.29616821599630327455	     -8.88311840587134327052	      4.42697842847374989361	     47.66782148956067288736	      0.83196043224574156572	      5.27137211260586724393	      0.00000000000000000000	      0.00000000000000000000	     75.70055851343558117605	     -2.48313607845420580844	    -14.96207981657439312073	     46.52866879366921892824	      0.81207846701946606593	      9.49452135077241088368	      0.00000000000000000000	      0.00000000000000000000	    -28.15854499490832552056	     -7.35289126136532278366	     -3.94918043766931692318	     49.92931241572388501027	    -13.50317846666076704309	     40.05465480491248797534	     10.47737341100809871364	      5.50634543524087138877	      0.00000000000000000000	      0.00000000000000000000	     56.14533130172968355964	    -15.53708268836702366400	     42.02853147183751758575	     14.99001159262188664911	     87.65405494677214903732	      0.00000000000000000000	      0.00000000000000000000
     18.85500000000000042633	     38.43207587333786534600	    -10.26889164508868468317	    177.58721819074261816240	      0.34841582196735493282	      0.82568256771767611912	     -0.57849786713224748969	     80.92610467015099118271	     -8.90378621757223420730	      4.28479423536072623335	     47.08123401555348408465	      0.82172254947335954256	      5.03886716663947442640	      0.00000000000000000000	      0.00000000000000000000	     75.33075902482774210966	     -2.42877940949353465783	    -15.01818206906463437633	     45.90253825988511238165	      0.80115042765766375510	      9.28990605062809038373	      0.00000000000000000000	      0.00000000000000000000	    -27.97599621256501123412	     -7.36627116069872123205	     -3.90408684107704484489	     49.74263713302996592347	    -13.49492990624304411540	     40.02950255083866437644	     10.45576794709564438790	      5.49930160873975193425	      0.00000000000000000000	      0.00000000000000000000	     55.95970329732264048062	    -15.55785334788895113434	     42.16627666430490961602	     14.98930569800242373901	     87.64678043293270093272	      0.00000000000000000000	      0.00000000000000000000
     18.85999999999999943157	     38.45662557600266495683	    -10.24487530765970966229	    177.56124175367651218949	      0.34825964483216059753	      0.82712100758117457211	     -0.57845546564062422235	     80.70478373253131110232	     -8.94089182447181229918	      4.05511974959366483517	     46.68903559351126375532	      0.81487739568759642861	      4.91092348237831100022	      0.00000000000000000000	      0.00000000000000000000	     75.07348339462346586970	     -2.43920745629700119750	    -15.18106554372652539087	     45.44486396374028203127	      0.79316250428818890761	      9.18596502838448181194	      0.00000000000000000000	      0.00000000000000000000	    -27.69703993658983876003	     -7.36477950984738338747	     -3.83857645928365442956	     49.49702590130983992367	    -13.49132503510940317426	     40.03538008392904146149	     10.42611316717281155775	      5.49475870885855854908	      0.00000000000000000000	      0.00000000000000000000	     55.70770029604032913539	    -15.56046582706699865639	     42.24630971317271388443	     14.99055330190581436511	     87.65309982261040033791	      0.00000000000000000000	      0.00000000000000000000
     18.86499999999999843681	     38.47010912462718579263	    -10.23631029680526260961	    177.51873679568745956203	      0.34826860151429411827	      0.82898064767458745639	     -0.57836475351931670996	     80.34963579891255847087	     -8.91690144337019674481	      4.00603800243594854180	     46.02853063809597955469	      0.80334940948986133247	      4.56800255635760255046	      0.00000000000000000000	      0.00000000000000000000	     74.72959807221832306823	     -2.36886510968501795560	    -15.19369864079531140533	     44.76516513548282460988	      0.78129952181314876736	      8.88375635347566650069	      0.00000000000000000000	      0.00000000000000000000	    -27.48560454695206445308	     -7.36813608135957132106	     -3.77364985041386269415	     49.30148560078510655558	    -13.52153957797040817468	     40.07593230329457867356	     10.45597870213559588137	      5.49865607782211629484	      0.00000000000000000000	      0.00000000000000000000	     55.51351810729727986882	    -15.58618869801648010309	     42.32109985983384348174	     15.02689303041264246019	     87.64526428766302501572	      0.00000000000000000000	      0.00000000000000000000
     18.87000000000000099476	     38.42766483429486612522	    -10.23014302484526005799	    177.47314163255370544903	      0.34830859855468665476	      0.83090051756354110779	     -0.57837759793958942733	     79.94750521061422432467	     -8.87372037933202228999	      4.00916103594213257821	     45.38909466396374625674	      0.79218914638555659735	      4.20863489756177244772	      0.00000000000000000000	      0.00000000000000000000	     74.35823972345301058340	     -2.27015422757325913139	    -15.11288720738498980722	     44.12666330413915005693	      0.77015556257618811298	      8.58477808845862710996	      0.00000000000000000000	      0.00000000000000000000	    -27.33625790889256990113	     -7.39556076448409616120	     -3.72213101411375868466	     49.12943648374643146326	    -13.53492706729967487433	     40.21547701697170396073	     10.45716570896939501267	      5.49651184659463432070	      0.00000000000000000000	      0.00000000000000000000	     55.36702973656744575237	    -15.59743075782276733321	     42.49096956402514280171	     15.02199298749739497794	     87.63073567701458443935	      0.00000000000000000000	      0.00000000000000000000
